# MagicaVoxel @ Ephtracy

# group
g hydrogenPickup

# material
mtllib hydrogenPickup.mtl
usemtl palette

# normals
vn -1 0 0
vn 1 0 0
vn 0 0 1
vn 0 0 -1
vn 0 -1 0
vn 0 1 0

# texcoords
vt 0.00195312 0.5
vt 0.00585938 0.5
vt 0.00976562 0.5

# verts
v -2.5 1 5.5
v -2.5 1 -2.5
v -2.5 4 5.5
v -2.5 4 -2.5
v -1.5 0 5.5
v -1.5 0 2.5
v -1.5 0 -1.5
v -1.5 0 -2.5
v -1.5 1 5.5
v -1.5 1 2.5
v -1.5 1 -1.5
v -1.5 1 -2.5
v -1.5 1 -3.5
v -1.5 4 5.5
v -1.5 4 2.5
v -1.5 4 -1.5
v -1.5 4 -2.5
v -1.5 4 -3.5
v -1.5 5 5.5
v -1.5 5 2.5
v -1.5 5 -1.5
v -1.5 5 -2.5
v -0.5 2 -3.5
v -0.5 2 -5.5
v -0.5 3 -3.5
v -0.5 3 -5.5
v 0.5 2 -3.5
v 0.5 2 -5.5
v 0.5 3 -3.5
v 0.5 3 -5.5
v 1.5 0 5.5
v 1.5 0 2.5
v 1.5 0 -1.5
v 1.5 0 -2.5
v 1.5 1 5.5
v 1.5 1 2.5
v 1.5 1 -1.5
v 1.5 1 -2.5
v 1.5 1 -3.5
v 1.5 4 5.5
v 1.5 4 2.5
v 1.5 4 -1.5
v 1.5 4 -2.5
v 1.5 4 -3.5
v 1.5 5 5.5
v 1.5 5 2.5
v 1.5 5 -1.5
v 1.5 5 -2.5
v 2.5 1 5.5
v 2.5 1 -2.5
v 2.5 4 5.5
v 2.5 4 -2.5
v -2.5 1 5.5
v -2.5 4 5.5
v -1.5 0 5.5
v -1.5 1 5.5
v -1.5 4 5.5
v -1.5 5 5.5
v 1.5 0 5.5
v 1.5 1 5.5
v 1.5 4 5.5
v 1.5 5 5.5
v 2.5 1 5.5
v 2.5 4 5.5
v -2.5 1 -2.5
v -2.5 4 -2.5
v -1.5 0 -2.5
v -1.5 1 -2.5
v -1.5 4 -2.5
v -1.5 5 -2.5
v 1.5 0 -2.5
v 1.5 1 -2.5
v 1.5 4 -2.5
v 1.5 5 -2.5
v 2.5 1 -2.5
v 2.5 4 -2.5
v -1.5 1 -3.5
v -1.5 4 -3.5
v -0.5 2 -3.5
v -0.5 3 -3.5
v 0.5 2 -3.5
v 0.5 3 -3.5
v 1.5 1 -3.5
v 1.5 4 -3.5
v -0.5 2 -5.5
v -0.5 3 -5.5
v 0.5 2 -5.5
v 0.5 3 -5.5
v -1.5 0 5.5
v 1.5 0 5.5
v -1.5 0 2.5
v -0.5 0 2.5
v 0.5 0 2.5
v 1.5 0 2.5
v -0.5 0 0.5
v 0.5 0 0.5
v -0.5 0 -0.5
v 0.5 0 -0.5
v -1.5 0 -1.5
v -0.5 0 -1.5
v 0.5 0 -1.5
v 1.5 0 -1.5
v -1.5 0 -2.5
v 1.5 0 -2.5
v -2.5 1 5.5
v -1.5 1 5.5
v 1.5 1 5.5
v 2.5 1 5.5
v -1.5 1 2.5
v 1.5 1 2.5
v -1.5 1 -1.5
v 1.5 1 -1.5
v -2.5 1 -2.5
v -1.5 1 -2.5
v 1.5 1 -2.5
v 2.5 1 -2.5
v -1.5 1 -3.5
v 1.5 1 -3.5
v -0.5 2 -3.5
v 0.5 2 -3.5
v -0.5 2 -5.5
v 0.5 2 -5.5
v -0.5 3 -3.5
v 0.5 3 -3.5
v -0.5 3 -5.5
v 0.5 3 -5.5
v -2.5 4 5.5
v -1.5 4 5.5
v 1.5 4 5.5
v 2.5 4 5.5
v -1.5 4 2.5
v 1.5 4 2.5
v -1.5 4 -1.5
v 1.5 4 -1.5
v -2.5 4 -2.5
v -1.5 4 -2.5
v 1.5 4 -2.5
v 2.5 4 -2.5
v -1.5 4 -3.5
v 1.5 4 -3.5
v -1.5 5 5.5
v 1.5 5 5.5
v -1.5 5 2.5
v -0.5 5 2.5
v 0.5 5 2.5
v 1.5 5 2.5
v -0.5 5 0.5
v 0.5 5 0.5
v -0.5 5 -0.5
v 0.5 5 -0.5
v -1.5 5 -1.5
v -0.5 5 -1.5
v 0.5 5 -1.5
v 1.5 5 -1.5
v -1.5 5 -2.5
v 1.5 5 -2.5

# faces
f 3/1/1 2/1/1 1/1/1
f 4/1/1 2/1/1 3/1/1
f 9/1/1 6/1/1 5/1/1
f 10/3/1 7/3/1 6/3/1
f 10/1/1 6/1/1 9/1/1
f 11/1/1 8/1/1 7/1/1
f 11/3/1 7/3/1 10/3/1
f 12/1/1 8/1/1 11/1/1
f 17/1/1 13/1/1 12/1/1
f 18/1/1 13/1/1 17/1/1
f 19/1/1 15/1/1 14/1/1
f 20/3/1 16/3/1 15/3/1
f 20/1/1 15/1/1 19/1/1
f 21/1/1 17/1/1 16/1/1
f 21/3/1 16/3/1 20/3/1
f 22/1/1 17/1/1 21/1/1
f 25/3/1 24/3/1 23/3/1
f 26/3/1 24/3/1 25/3/1
f 27/3/2 28/3/2 29/3/2
f 29/3/2 28/3/2 30/3/2
f 31/1/2 32/1/2 35/1/2
f 32/3/2 33/3/2 36/3/2
f 35/1/2 32/1/2 36/1/2
f 33/1/2 34/1/2 37/1/2
f 36/3/2 33/3/2 37/3/2
f 37/1/2 34/1/2 38/1/2
f 38/1/2 39/1/2 43/1/2
f 43/1/2 39/1/2 44/1/2
f 40/1/2 41/1/2 45/1/2
f 41/3/2 42/3/2 46/3/2
f 45/1/2 41/1/2 46/1/2
f 42/1/2 43/1/2 47/1/2
f 46/3/2 42/3/2 47/3/2
f 47/1/2 43/1/2 48/1/2
f 49/1/2 50/1/2 51/1/2
f 51/1/2 50/1/2 52/1/2
f 56/1/3 54/1/3 53/1/3
f 57/1/3 54/1/3 56/1/3
f 59/1/3 56/1/3 55/1/3
f 59/1/3 58/1/3 57/1/3
f 59/1/3 57/1/3 56/1/3
f 60/1/3 58/1/3 59/1/3
f 61/1/3 58/1/3 60/1/3
f 62/1/3 58/1/3 61/1/3
f 63/1/3 61/1/3 60/1/3
f 64/1/3 61/1/3 63/1/3
f 65/1/4 66/1/4 68/1/4
f 68/1/4 66/1/4 69/1/4
f 67/1/4 68/1/4 71/1/4
f 71/1/4 68/1/4 72/1/4
f 69/1/4 70/1/4 73/1/4
f 73/1/4 70/1/4 74/1/4
f 72/1/4 73/1/4 75/1/4
f 75/1/4 73/1/4 76/1/4
f 77/1/4 78/1/4 79/1/4
f 79/1/4 78/1/4 80/1/4
f 77/1/4 79/1/4 81/1/4
f 80/1/4 78/1/4 82/1/4
f 77/1/4 81/1/4 83/1/4
f 81/1/4 82/1/4 83/1/4
f 82/1/4 78/1/4 84/1/4
f 83/1/4 82/1/4 84/1/4
f 85/3/4 86/3/4 87/3/4
f 87/3/4 86/3/4 88/3/4
f 91/1/5 90/1/5 89/1/5
f 92/1/5 90/1/5 91/1/5
f 93/1/5 90/1/5 92/1/5
f 94/1/5 90/1/5 93/1/5
f 95/3/5 92/3/5 91/3/5
f 95/1/5 93/1/5 92/1/5
f 96/3/5 94/3/5 93/3/5
f 96/1/5 93/1/5 95/1/5
f 97/3/5 95/3/5 91/3/5
f 97/3/5 96/3/5 95/3/5
f 98/3/5 94/3/5 96/3/5
f 98/3/5 96/3/5 97/3/5
f 99/3/5 97/3/5 91/3/5
f 100/1/5 98/1/5 97/1/5
f 100/3/5 97/3/5 99/3/5
f 101/3/5 94/3/5 98/3/5
f 101/1/5 98/1/5 100/1/5
f 102/3/5 94/3/5 101/3/5
f 103/1/5 100/1/5 99/1/5
f 103/1/5 101/1/5 100/1/5
f 103/1/5 102/1/5 101/1/5
f 104/1/5 102/1/5 103/1/5
f 109/1/5 106/1/5 105/1/5
f 110/1/5 108/1/5 107/1/5
f 111/1/5 109/1/5 105/1/5
f 112/1/5 108/1/5 110/1/5
f 113/1/5 111/1/5 105/1/5
f 114/1/5 111/1/5 113/1/5
f 115/1/5 108/1/5 112/1/5
f 116/1/5 108/1/5 115/1/5
f 117/1/5 115/1/5 114/1/5
f 118/1/5 115/1/5 117/1/5
f 121/3/5 120/3/5 119/3/5
f 122/3/5 120/3/5 121/3/5
f 123/3/6 124/3/6 125/3/6
f 125/3/6 124/3/6 126/3/6
f 127/1/6 128/1/6 131/1/6
f 129/1/6 130/1/6 132/1/6
f 127/1/6 131/1/6 133/1/6
f 132/1/6 130/1/6 134/1/6
f 127/1/6 133/1/6 135/1/6
f 135/1/6 133/1/6 136/1/6
f 134/1/6 130/1/6 137/1/6
f 137/1/6 130/1/6 138/1/6
f 136/1/6 137/1/6 139/1/6
f 139/1/6 137/1/6 140/1/6
f 141/1/6 142/1/6 143/1/6
f 143/1/6 142/1/6 144/1/6
f 144/1/6 142/1/6 145/1/6
f 145/1/6 142/1/6 146/1/6
f 143/3/6 144/3/6 147/3/6
f 144/1/6 145/1/6 147/1/6
f 145/3/6 146/3/6 148/3/6
f 147/1/6 145/1/6 148/1/6
f 143/3/6 147/3/6 149/3/6
f 147/3/6 148/3/6 149/3/6
f 148/3/6 146/3/6 150/3/6
f 149/3/6 148/3/6 150/3/6
f 143/3/6 149/3/6 151/3/6
f 149/1/6 150/1/6 152/1/6
f 151/3/6 149/3/6 152/3/6
f 150/3/6 146/3/6 153/3/6
f 152/1/6 150/1/6 153/1/6
f 153/3/6 146/3/6 154/3/6
f 151/1/6 152/1/6 155/1/6
f 152/1/6 153/1/6 155/1/6
f 153/1/6 154/1/6 155/1/6
f 155/1/6 154/1/6 156/1/6
