# MagicaVoxel @ Ephtracy

# group
g FirstAid

# material
mtllib FirstAid.mtl
usemtl palette

# normals
vn -1 0 0
vn 1 0 0
vn 0 0 1
vn 0 0 -1
vn 0 -1 0
vn 0 1 0

# texcoords
vt 0.822266 0.5
vt 0.841797 0.5
vt 0.958984 0.5
vt 0.982422 0.5

# verts
v -15 7 14
v -15 7 -14
v -15 8 14
v -15 8 -14
v -14 2 13
v -14 2 -13
v -14 4 13
v -14 4 -13
v -14 5 13
v -14 5 -13
v -14 7 13
v -14 7 -13
v 1 6 14
v 1 6 13
v 1 6 -13
v 1 6 -14
v 1 7 14
v 1 7 13
v 1 7 -13
v 1 7 -14
v 2 7 8
v 2 7 3
v 2 7 -3
v 2 7 -8
v 2 8 8
v 2 8 3
v 2 8 -3
v 2 8 -8
v 3 5 14
v 3 5 13
v 3 5 -13
v 3 5 -14
v 3 6 14
v 3 6 13
v 3 6 -13
v 3 6 -14
v 5 4 14
v 5 4 13
v 5 4 -13
v 5 4 -14
v 5 5 14
v 5 5 13
v 5 5 -13
v 5 5 -14
v 7 3 14
v 7 3 13
v 7 3 -13
v 7 3 -14
v 7 4 14
v 7 4 13
v 7 4 -13
v 7 4 -14
v 7 7 3
v 7 7 -3
v 7 8 3
v 7 8 -3
v 8 1 14
v 8 1 13
v 8 1 -13
v 8 1 -14
v 8 2 13
v 8 2 -13
v 8 3 14
v 8 3 13
v 8 3 -13
v 8 3 -14
v 9 0 14
v 9 0 13
v 9 0 -13
v 9 0 -14
v 9 1 14
v 9 1 13
v 9 1 -13
v 9 1 -14
v 12 1 14
v 12 1 13
v 12 1 -13
v 12 1 -14
v 12 2 14
v 12 2 13
v 12 2 -13
v 12 2 -14
v 12 6 14
v 12 6 13
v 12 6 -13
v 12 6 -14
v 12 7 14
v 12 7 13
v 12 7 -13
v 12 7 -14
v 13 2 14
v 13 2 13
v 13 2 -13
v 13 2 -14
v 13 3 14
v 13 3 13
v 13 3 -13
v 13 3 -14
v 13 5 14
v 13 5 13
v 13 5 -13
v 13 5 -14
v 13 6 14
v 13 6 13
v 13 6 -13
v 13 6 -14
v 14 3 14
v 14 3 13
v 14 3 -13
v 14 3 -14
v 14 5 14
v 14 5 13
v 14 5 -13
v 14 5 -14
v -9 7 3
v -9 7 -3
v -9 8 3
v -9 8 -3
v -4 7 8
v -4 7 3
v -4 7 -3
v -4 7 -8
v -4 8 8
v -4 8 3
v -4 8 -3
v -4 8 -8
v 8 3 14
v 8 3 13
v 8 3 -13
v 8 3 -14
v 8 5 14
v 8 5 13
v 8 5 -13
v 8 5 -14
v 9 2 14
v 9 2 13
v 9 2 -13
v 9 2 -14
v 9 3 14
v 9 3 13
v 9 3 -13
v 9 3 -14
v 9 5 14
v 9 5 13
v 9 5 -13
v 9 5 -14
v 9 6 14
v 9 6 13
v 9 6 -13
v 9 6 -14
v 10 1 14
v 10 1 13
v 10 1 -13
v 10 1 -14
v 10 2 14
v 10 2 13
v 10 2 -13
v 10 2 -14
v 10 6 14
v 10 6 13
v 10 6 -13
v 10 6 -14
v 10 7 14
v 10 7 13
v 10 7 -13
v 10 7 -14
v 13 0 14
v 13 0 13
v 13 0 -13
v 13 0 -14
v 13 1 14
v 13 1 13
v 13 1 -13
v 13 1 -14
v 13 7 14
v 13 7 13
v 13 7 -13
v 13 7 -14
v 13 8 14
v 13 8 -14
v 14 1 14
v 14 1 13
v 14 1 -13
v 14 1 -14
v 14 2 14
v 14 2 13
v 14 2 4
v 14 2 -4
v 14 2 -13
v 14 2 -14
v 14 3 3
v 14 3 -3
v 14 5 3
v 14 5 -3
v 14 6 14
v 14 6 13
v 14 6 4
v 14 6 -4
v 14 6 -13
v 14 6 -14
v 14 7 14
v 14 7 13
v 14 7 -13
v 14 7 -14
v 15 2 14
v 15 2 13
v 15 2 4
v 15 2 -4
v 15 2 -13
v 15 2 -14
v 15 3 3
v 15 3 -3
v 15 5 3
v 15 5 -3
v 15 6 14
v 15 6 13
v 15 6 4
v 15 6 -4
v 15 6 -13
v 15 6 -14
v -15 7 14
v -15 8 14
v 1 6 14
v 1 7 14
v 3 5 14
v 3 6 14
v 5 4 14
v 5 5 14
v 7 3 14
v 7 4 14
v 8 1 14
v 8 3 14
v 8 5 14
v 9 0 14
v 9 1 14
v 9 2 14
v 9 3 14
v 9 5 14
v 9 6 14
v 10 1 14
v 10 2 14
v 10 6 14
v 10 7 14
v 12 1 14
v 12 2 14
v 12 6 14
v 12 7 14
v 13 0 14
v 13 1 14
v 13 2 14
v 13 3 14
v 13 5 14
v 13 6 14
v 13 7 14
v 13 8 14
v 14 1 14
v 14 2 14
v 14 3 14
v 14 5 14
v 14 6 14
v 14 7 14
v 15 2 14
v 15 6 14
v -14 2 13
v -14 4 13
v -14 5 13
v -14 7 13
v 1 6 13
v 1 7 13
v 3 5 13
v 3 6 13
v 5 4 13
v 5 5 13
v 7 3 13
v 7 4 13
v 8 2 13
v 8 3 13
v 8 5 13
v 9 2 13
v 9 3 13
v 9 5 13
v 9 6 13
v 10 1 13
v 10 2 13
v 10 6 13
v 10 7 13
v 12 1 13
v 12 2 13
v 12 6 13
v 12 7 13
v 13 2 13
v 13 3 13
v 13 5 13
v 13 6 13
v 14 3 13
v 14 5 13
v -9 7 -3
v -9 8 -3
v -4 7 -3
v -4 8 -3
v 2 7 -3
v 2 8 -3
v 7 7 -3
v 7 8 -3
v 14 3 -3
v 14 5 -3
v 15 3 -3
v 15 5 -3
v -4 7 -8
v -4 8 -8
v 2 7 -8
v 2 8 -8
v -4 7 8
v -4 8 8
v 2 7 8
v 2 8 8
v -9 7 3
v -9 8 3
v -4 7 3
v -4 8 3
v 2 7 3
v 2 8 3
v 7 7 3
v 7 8 3
v 14 3 3
v 14 5 3
v 15 3 3
v 15 5 3
v -14 2 -13
v -14 4 -13
v -14 5 -13
v -14 7 -13
v 1 6 -13
v 1 7 -13
v 3 5 -13
v 3 6 -13
v 5 4 -13
v 5 5 -13
v 7 3 -13
v 7 4 -13
v 8 2 -13
v 8 3 -13
v 8 5 -13
v 9 2 -13
v 9 3 -13
v 9 5 -13
v 9 6 -13
v 10 1 -13
v 10 2 -13
v 10 6 -13
v 10 7 -13
v 12 1 -13
v 12 2 -13
v 12 6 -13
v 12 7 -13
v 13 2 -13
v 13 3 -13
v 13 5 -13
v 13 6 -13
v 14 3 -13
v 14 5 -13
v -15 7 -14
v -15 8 -14
v 1 6 -14
v 1 7 -14
v 3 5 -14
v 3 6 -14
v 5 4 -14
v 5 5 -14
v 7 3 -14
v 7 4 -14
v 8 1 -14
v 8 3 -14
v 8 5 -14
v 9 0 -14
v 9 1 -14
v 9 2 -14
v 9 3 -14
v 9 5 -14
v 9 6 -14
v 10 1 -14
v 10 2 -14
v 10 6 -14
v 10 7 -14
v 12 1 -14
v 12 2 -14
v 12 6 -14
v 12 7 -14
v 13 0 -14
v 13 1 -14
v 13 2 -14
v 13 3 -14
v 13 5 -14
v 13 6 -14
v 13 7 -14
v 13 8 -14
v 14 1 -14
v 14 2 -14
v 14 3 -14
v 14 5 -14
v 14 6 -14
v 14 7 -14
v 15 2 -14
v 15 6 -14
v 9 0 14
v 13 0 14
v 9 0 13
v 13 0 13
v 9 0 -13
v 13 0 -13
v 9 0 -14
v 13 0 -14
v 8 1 14
v 9 1 14
v 13 1 14
v 14 1 14
v 8 1 13
v 9 1 13
v 13 1 13
v 14 1 13
v 8 1 -13
v 9 1 -13
v 13 1 -13
v 14 1 -13
v 8 1 -14
v 9 1 -14
v 13 1 -14
v 14 1 -14
v 14 2 14
v 15 2 14
v -14 2 13
v 8 2 13
v 14 2 13
v 15 2 13
v 14 2 4
v 15 2 4
v 14 2 -4
v 15 2 -4
v -14 2 -13
v 8 2 -13
v 14 2 -13
v 15 2 -13
v 14 2 -14
v 15 2 -14
v 7 3 14
v 8 3 14
v 7 3 13
v 8 3 13
v 7 3 -13
v 8 3 -13
v 7 3 -14
v 8 3 -14
v 5 4 14
v 7 4 14
v 5 4 13
v 7 4 13
v 5 4 -13
v 7 4 -13
v 5 4 -14
v 7 4 -14
v 3 5 14
v 5 5 14
v 8 5 14
v 9 5 14
v 13 5 14
v 14 5 14
v 3 5 13
v 5 5 13
v 8 5 13
v 9 5 13
v 13 5 13
v 14 5 13
v 14 5 3
v 15 5 3
v 14 5 -3
v 15 5 -3
v 3 5 -13
v 5 5 -13
v 8 5 -13
v 9 5 -13
v 13 5 -13
v 14 5 -13
v 3 5 -14
v 5 5 -14
v 8 5 -14
v 9 5 -14
v 13 5 -14
v 14 5 -14
v 1 6 14
v 3 6 14
v 9 6 14
v 10 6 14
v 12 6 14
v 13 6 14
v 1 6 13
v 3 6 13
v 9 6 13
v 10 6 13
v 12 6 13
v 13 6 13
v 1 6 -13
v 3 6 -13
v 9 6 -13
v 10 6 -13
v 12 6 -13
v 13 6 -13
v 1 6 -14
v 3 6 -14
v 9 6 -14
v 10 6 -14
v 12 6 -14
v 13 6 -14
v -15 7 14
v 1 7 14
v 10 7 14
v 12 7 14
v -14 7 13
v 1 7 13
v 10 7 13
v 12 7 13
v -14 7 -13
v 1 7 -13
v 10 7 -13
v 12 7 -13
v -15 7 -14
v 1 7 -14
v 10 7 -14
v 12 7 -14
v 10 1 14
v 12 1 14
v 10 1 13
v 12 1 13
v 10 1 -13
v 12 1 -13
v 10 1 -14
v 12 1 -14
v 9 2 14
v 10 2 14
v 12 2 14
v 13 2 14
v 9 2 13
v 10 2 13
v 12 2 13
v 13 2 13
v 9 2 -13
v 10 2 -13
v 12 2 -13
v 13 2 -13
v 9 2 -14
v 10 2 -14
v 12 2 -14
v 13 2 -14
v 8 3 14
v 9 3 14
v 13 3 14
v 14 3 14
v 8 3 13
v 9 3 13
v 13 3 13
v 14 3 13
v 14 3 3
v 15 3 3
v 14 3 -3
v 15 3 -3
v 8 3 -13
v 9 3 -13
v 13 3 -13
v 14 3 -13
v 8 3 -14
v 9 3 -14
v 13 3 -14
v 14 3 -14
v 14 6 14
v 15 6 14
v 14 6 13
v 15 6 13
v 14 6 4
v 15 6 4
v 14 6 -4
v 15 6 -4
v 14 6 -13
v 15 6 -13
v 14 6 -14
v 15 6 -14
v 13 7 14
v 14 7 14
v 13 7 13
v 14 7 13
v -4 7 8
v 2 7 8
v -9 7 3
v -4 7 3
v 2 7 3
v 7 7 3
v -9 7 -3
v -4 7 -3
v 2 7 -3
v 7 7 -3
v -4 7 -8
v 2 7 -8
v 13 7 -13
v 14 7 -13
v 13 7 -14
v 14 7 -14
v -15 8 14
v 13 8 14
v -4 8 8
v 2 8 8
v -9 8 3
v -4 8 3
v 2 8 3
v 7 8 3
v -9 8 -3
v -4 8 -3
v 2 8 -3
v 7 8 -3
v -4 8 -8
v 2 8 -8
v -15 8 -14
v 13 8 -14

# faces
f 3/4/1 2/4/1 1/4/1
f 4/4/1 2/4/1 3/4/1
f 7/3/1 6/3/1 5/3/1
f 8/3/1 6/3/1 7/3/1
f 9/1/1 8/1/1 7/1/1
f 10/1/1 8/1/1 9/1/1
f 11/3/1 10/3/1 9/3/1
f 12/3/1 10/3/1 11/3/1
f 17/4/1 14/4/1 13/4/1
f 18/4/1 14/4/1 17/4/1
f 19/4/1 16/4/1 15/4/1
f 20/4/1 16/4/1 19/4/1
f 25/4/1 22/4/1 21/4/1
f 26/4/1 22/4/1 25/4/1
f 27/4/1 24/4/1 23/4/1
f 28/4/1 24/4/1 27/4/1
f 33/4/1 30/4/1 29/4/1
f 34/4/1 30/4/1 33/4/1
f 35/4/1 32/4/1 31/4/1
f 36/4/1 32/4/1 35/4/1
f 41/4/1 38/4/1 37/4/1
f 42/4/1 38/4/1 41/4/1
f 43/4/1 40/4/1 39/4/1
f 44/4/1 40/4/1 43/4/1
f 49/4/1 46/4/1 45/4/1
f 50/4/1 46/4/1 49/4/1
f 51/4/1 48/4/1 47/4/1
f 52/4/1 48/4/1 51/4/1
f 55/4/1 54/4/1 53/4/1
f 56/4/1 54/4/1 55/4/1
f 61/4/1 58/4/1 57/4/1
f 61/3/1 59/3/1 58/3/1
f 62/4/1 60/4/1 59/4/1
f 62/3/1 59/3/1 61/3/1
f 63/4/1 61/4/1 57/4/1
f 64/4/1 61/4/1 63/4/1
f 65/4/1 60/4/1 62/4/1
f 66/4/1 60/4/1 65/4/1
f 71/4/1 68/4/1 67/4/1
f 72/3/1 69/3/1 68/3/1
f 72/4/1 68/4/1 71/4/1
f 73/4/1 70/4/1 69/4/1
f 73/3/1 69/3/1 72/3/1
f 74/4/1 70/4/1 73/4/1
f 79/4/1 76/4/1 75/4/1
f 80/4/1 76/4/1 79/4/1
f 81/4/1 78/4/1 77/4/1
f 82/4/1 78/4/1 81/4/1
f 87/4/1 84/4/1 83/4/1
f 88/4/1 84/4/1 87/4/1
f 89/4/1 86/4/1 85/4/1
f 90/4/1 86/4/1 89/4/1
f 95/4/1 92/4/1 91/4/1
f 96/4/1 92/4/1 95/4/1
f 97/4/1 94/4/1 93/4/1
f 98/4/1 94/4/1 97/4/1
f 103/4/1 100/4/1 99/4/1
f 104/4/1 100/4/1 103/4/1
f 105/4/1 102/4/1 101/4/1
f 106/4/1 102/4/1 105/4/1
f 111/4/1 108/4/1 107/4/1
f 112/4/1 108/4/1 111/4/1
f 113/4/1 110/4/1 109/4/1
f 114/4/1 110/4/1 113/4/1
f 115/4/2 116/4/2 117/4/2
f 117/4/2 116/4/2 118/4/2
f 119/4/2 120/4/2 123/4/2
f 123/4/2 120/4/2 124/4/2
f 121/4/2 122/4/2 125/4/2
f 125/4/2 122/4/2 126/4/2
f 127/4/2 128/4/2 131/4/2
f 131/4/2 128/4/2 132/4/2
f 129/4/2 130/4/2 133/4/2
f 133/4/2 130/4/2 134/4/2
f 135/4/2 136/4/2 139/4/2
f 139/4/2 136/4/2 140/4/2
f 137/4/2 138/4/2 141/4/2
f 141/4/2 138/4/2 142/4/2
f 143/4/2 144/4/2 147/4/2
f 147/4/2 144/4/2 148/4/2
f 145/4/2 146/4/2 149/4/2
f 149/4/2 146/4/2 150/4/2
f 151/4/2 152/4/2 155/4/2
f 155/4/2 152/4/2 156/4/2
f 153/4/2 154/4/2 157/4/2
f 157/4/2 154/4/2 158/4/2
f 159/4/2 160/4/2 163/4/2
f 163/4/2 160/4/2 164/4/2
f 161/4/2 162/4/2 165/4/2
f 165/4/2 162/4/2 166/4/2
f 167/4/2 168/4/2 171/4/2
f 168/3/2 169/3/2 172/3/2
f 171/4/2 168/4/2 172/4/2
f 169/4/2 170/4/2 173/4/2
f 172/3/2 169/3/2 173/3/2
f 173/4/2 170/4/2 174/4/2
f 175/4/2 176/4/2 179/4/2
f 177/4/2 178/4/2 179/4/2
f 176/4/2 177/4/2 179/4/2
f 179/4/2 178/4/2 180/4/2
f 181/4/2 182/4/2 185/4/2
f 182/3/2 183/3/2 186/3/2
f 185/4/2 182/4/2 186/4/2
f 186/3/2 183/3/2 187/3/2
f 187/3/2 183/3/2 188/3/2
f 183/4/2 184/4/2 189/4/2
f 188/3/2 183/3/2 189/3/2
f 189/4/2 184/4/2 190/4/2
f 191/3/2 192/3/2 193/3/2
f 193/3/2 192/3/2 194/3/2
f 195/4/2 196/4/2 201/4/2
f 196/3/2 197/3/2 202/3/2
f 201/4/2 196/4/2 202/4/2
f 197/3/2 198/3/2 202/3/2
f 198/3/2 199/3/2 202/3/2
f 199/4/2 200/4/2 203/4/2
f 202/3/2 199/3/2 203/3/2
f 203/4/2 200/4/2 204/4/2
f 207/4/2 208/4/2 211/4/2
f 211/4/2 208/4/2 212/4/2
f 207/4/2 211/4/2 213/4/2
f 212/4/2 208/4/2 214/4/2
f 205/4/2 206/4/2 215/4/2
f 206/3/2 207/3/2 216/3/2
f 215/4/2 206/4/2 216/4/2
f 213/4/2 214/4/2 217/4/2
f 216/3/2 207/3/2 217/3/2
f 207/4/2 213/4/2 217/4/2
f 208/3/2 209/3/2 218/3/2
f 217/4/2 214/4/2 218/4/2
f 214/4/2 208/4/2 218/4/2
f 209/4/2 210/4/2 219/4/2
f 218/3/2 209/3/2 219/3/2
f 219/4/2 210/4/2 220/4/2
f 224/4/3 222/4/3 221/4/3
f 226/4/3 224/4/3 223/4/3
f 228/4/3 226/4/3 225/4/3
f 230/4/3 228/4/3 227/4/3
f 232/4/3 230/4/3 229/4/3
f 233/4/3 226/4/3 228/4/3
f 233/4/3 228/4/3 230/4/3
f 233/4/3 230/4/3 232/4/3
f 235/4/3 232/4/3 231/4/3
f 236/4/3 232/4/3 235/4/3
f 237/4/3 232/4/3 236/4/3
f 238/4/3 226/4/3 233/4/3
f 239/4/3 224/4/3 226/4/3
f 239/4/3 226/4/3 238/4/3
f 240/4/3 235/4/3 234/4/3
f 240/4/3 236/4/3 235/4/3
f 241/4/3 236/4/3 240/4/3
f 242/4/3 224/4/3 239/4/3
f 243/4/3 222/4/3 224/4/3
f 243/4/3 224/4/3 242/4/3
f 244/4/3 240/4/3 234/4/3
f 247/4/3 222/4/3 243/4/3
f 248/4/3 245/4/3 244/4/3
f 248/4/3 244/4/3 234/4/3
f 249/4/3 245/4/3 248/4/3
f 250/4/3 245/4/3 249/4/3
f 253/4/3 247/4/3 246/4/3
f 254/4/3 222/4/3 247/4/3
f 254/4/3 247/4/3 253/4/3
f 255/4/3 222/4/3 254/4/3
f 256/4/3 251/4/3 250/4/3
f 256/4/3 250/4/3 249/4/3
f 257/4/3 251/4/3 256/4/3
f 258/4/3 251/4/3 257/4/3
f 259/4/3 253/4/3 252/4/3
f 259/4/3 254/4/3 253/4/3
f 260/4/3 254/4/3 259/4/3
f 261/4/3 254/4/3 260/4/3
f 262/4/3 258/4/3 257/4/3
f 262/4/3 260/4/3 259/4/3
f 262/4/3 259/4/3 258/4/3
f 263/4/3 260/4/3 262/4/3
f 268/3/3 267/3/3 266/3/3
f 269/3/3 267/3/3 268/3/3
f 270/1/3 266/1/3 265/1/3
f 270/3/3 268/3/3 266/3/3
f 271/3/3 268/3/3 270/3/3
f 272/3/3 265/3/3 264/3/3
f 272/1/3 270/1/3 265/1/3
f 273/1/3 270/1/3 272/1/3
f 274/3/3 272/3/3 264/3/3
f 275/3/3 272/3/3 274/3/3
f 276/3/3 274/3/3 264/3/3
f 277/3/3 274/3/3 276/3/3
f 280/2/3 278/2/3 277/2/3
f 281/2/3 278/2/3 280/2/3
f 284/2/3 281/2/3 280/2/3
f 284/2/3 282/2/3 281/2/3
f 284/2/3 280/2/3 279/2/3
f 285/2/3 282/2/3 284/2/3
f 287/2/3 285/2/3 284/2/3
f 287/2/3 286/2/3 285/2/3
f 287/2/3 284/2/3 283/2/3
f 288/2/3 286/2/3 287/2/3
f 289/2/3 286/2/3 288/2/3
f 290/2/3 286/2/3 289/2/3
f 291/2/3 289/2/3 288/2/3
f 292/2/3 289/2/3 291/2/3
f 293/2/3 289/2/3 292/2/3
f 294/2/3 289/2/3 293/2/3
f 295/2/3 293/2/3 292/2/3
f 296/2/3 293/2/3 295/2/3
f 299/4/3 298/4/3 297/4/3
f 300/4/3 298/4/3 299/4/3
f 303/4/3 302/4/3 301/4/3
f 304/4/3 302/4/3 303/4/3
f 307/4/3 306/4/3 305/4/3
f 308/4/3 306/4/3 307/4/3
f 311/4/3 310/4/3 309/4/3
f 312/4/3 310/4/3 311/4/3
f 313/4/4 314/4/4 315/4/4
f 315/4/4 314/4/4 316/4/4
f 317/4/4 318/4/4 319/4/4
f 319/4/4 318/4/4 320/4/4
f 321/4/4 322/4/4 323/4/4
f 323/4/4 322/4/4 324/4/4
f 325/4/4 326/4/4 327/4/4
f 327/4/4 326/4/4 328/4/4
f 331/3/4 332/3/4 333/3/4
f 333/3/4 332/3/4 334/3/4
f 330/1/4 331/1/4 335/1/4
f 331/3/4 333/3/4 335/3/4
f 335/3/4 333/3/4 336/3/4
f 329/3/4 330/3/4 337/3/4
f 330/1/4 335/1/4 337/1/4
f 337/1/4 335/1/4 338/1/4
f 329/3/4 337/3/4 339/3/4
f 339/3/4 337/3/4 340/3/4
f 329/3/4 339/3/4 341/3/4
f 341/3/4 339/3/4 342/3/4
f 342/2/4 343/2/4 345/2/4
f 345/2/4 343/2/4 346/2/4
f 345/2/4 346/2/4 349/2/4
f 346/2/4 347/2/4 349/2/4
f 344/2/4 345/2/4 349/2/4
f 349/2/4 347/2/4 350/2/4
f 349/2/4 350/2/4 352/2/4
f 350/2/4 351/2/4 352/2/4
f 348/2/4 349/2/4 352/2/4
f 352/2/4 351/2/4 353/2/4
f 353/2/4 351/2/4 354/2/4
f 354/2/4 351/2/4 355/2/4
f 353/2/4 354/2/4 356/2/4
f 356/2/4 354/2/4 357/2/4
f 357/2/4 354/2/4 358/2/4
f 358/2/4 354/2/4 359/2/4
f 357/2/4 358/2/4 360/2/4
f 360/2/4 358/2/4 361/2/4
f 362/4/4 363/4/4 365/4/4
f 364/4/4 365/4/4 367/4/4
f 366/4/4 367/4/4 369/4/4
f 368/4/4 369/4/4 371/4/4
f 370/4/4 371/4/4 373/4/4
f 369/4/4 367/4/4 374/4/4
f 371/4/4 369/4/4 374/4/4
f 373/4/4 371/4/4 374/4/4
f 372/4/4 373/4/4 376/4/4
f 376/4/4 373/4/4 377/4/4
f 377/4/4 373/4/4 378/4/4
f 374/4/4 367/4/4 379/4/4
f 367/4/4 365/4/4 380/4/4
f 379/4/4 367/4/4 380/4/4
f 375/4/4 376/4/4 381/4/4
f 376/4/4 377/4/4 381/4/4
f 381/4/4 377/4/4 382/4/4
f 380/4/4 365/4/4 383/4/4
f 365/4/4 363/4/4 384/4/4
f 383/4/4 365/4/4 384/4/4
f 375/4/4 381/4/4 385/4/4
f 384/4/4 363/4/4 388/4/4
f 385/4/4 386/4/4 389/4/4
f 375/4/4 385/4/4 389/4/4
f 389/4/4 386/4/4 390/4/4
f 390/4/4 386/4/4 391/4/4
f 387/4/4 388/4/4 394/4/4
f 388/4/4 363/4/4 395/4/4
f 394/4/4 388/4/4 395/4/4
f 395/4/4 363/4/4 396/4/4
f 391/4/4 392/4/4 397/4/4
f 390/4/4 391/4/4 397/4/4
f 397/4/4 392/4/4 398/4/4
f 398/4/4 392/4/4 399/4/4
f 393/4/4 394/4/4 400/4/4
f 394/4/4 395/4/4 400/4/4
f 400/4/4 395/4/4 401/4/4
f 401/4/4 395/4/4 402/4/4
f 398/4/4 399/4/4 403/4/4
f 400/4/4 401/4/4 403/4/4
f 399/4/4 400/4/4 403/4/4
f 403/4/4 401/4/4 404/4/4
f 407/4/5 406/4/5 405/4/5
f 408/4/5 406/4/5 407/4/5
f 409/3/5 408/3/5 407/3/5
f 410/3/5 408/3/5 409/3/5
f 411/4/5 410/4/5 409/4/5
f 412/4/5 410/4/5 411/4/5
f 417/4/5 414/4/5 413/4/5
f 418/4/5 414/4/5 417/4/5
f 419/4/5 416/4/5 415/4/5
f 420/4/5 416/4/5 419/4/5
f 421/3/5 418/3/5 417/3/5
f 422/3/5 418/3/5 421/3/5
f 423/3/5 420/3/5 419/3/5
f 424/3/5 420/3/5 423/3/5
f 425/4/5 422/4/5 421/4/5
f 426/4/5 422/4/5 425/4/5
f 427/4/5 424/4/5 423/4/5
f 428/4/5 424/4/5 427/4/5
f 433/4/5 430/4/5 429/4/5
f 434/4/5 430/4/5 433/4/5
f 435/3/5 434/3/5 433/3/5
f 436/3/5 434/3/5 435/3/5
f 437/4/5 436/4/5 435/4/5
f 438/4/5 436/4/5 437/4/5
f 439/3/5 432/3/5 431/3/5
f 440/3/5 432/3/5 439/3/5
f 441/3/5 438/3/5 437/3/5
f 442/3/5 438/3/5 441/3/5
f 443/4/5 442/4/5 441/4/5
f 444/4/5 442/4/5 443/4/5
f 447/4/5 446/4/5 445/4/5
f 448/4/5 446/4/5 447/4/5
f 451/4/5 450/4/5 449/4/5
f 452/4/5 450/4/5 451/4/5
f 455/4/5 454/4/5 453/4/5
f 456/4/5 454/4/5 455/4/5
f 459/4/5 458/4/5 457/4/5
f 460/4/5 458/4/5 459/4/5
f 467/4/5 462/4/5 461/4/5
f 468/4/5 462/4/5 467/4/5
f 469/4/5 464/4/5 463/4/5
f 470/4/5 464/4/5 469/4/5
f 471/4/5 466/4/5 465/4/5
f 472/4/5 466/4/5 471/4/5
f 475/4/5 474/4/5 473/4/5
f 476/4/5 474/4/5 475/4/5
f 483/4/5 478/4/5 477/4/5
f 484/4/5 478/4/5 483/4/5
f 485/4/5 480/4/5 479/4/5
f 486/4/5 480/4/5 485/4/5
f 487/4/5 482/4/5 481/4/5
f 488/4/5 482/4/5 487/4/5
f 495/4/5 490/4/5 489/4/5
f 496/4/5 490/4/5 495/4/5
f 497/4/5 492/4/5 491/4/5
f 498/4/5 492/4/5 497/4/5
f 499/4/5 494/4/5 493/4/5
f 500/4/5 494/4/5 499/4/5
f 507/4/5 502/4/5 501/4/5
f 508/4/5 502/4/5 507/4/5
f 509/4/5 504/4/5 503/4/5
f 510/4/5 504/4/5 509/4/5
f 511/4/5 506/4/5 505/4/5
f 512/4/5 506/4/5 511/4/5
f 517/4/5 514/4/5 513/4/5
f 518/4/5 514/4/5 517/4/5
f 519/4/5 516/4/5 515/4/5
f 520/4/5 516/4/5 519/4/5
f 521/4/5 517/4/5 513/4/5
f 525/4/5 521/4/5 513/4/5
f 525/4/5 522/4/5 521/4/5
f 526/4/5 522/4/5 525/4/5
f 527/4/5 524/4/5 523/4/5
f 528/4/5 524/4/5 527/4/5
f 529/4/6 530/4/6 531/4/6
f 531/4/6 530/4/6 532/4/6
f 533/4/6 534/4/6 535/4/6
f 535/4/6 534/4/6 536/4/6
f 537/4/6 538/4/6 541/4/6
f 541/4/6 538/4/6 542/4/6
f 539/4/6 540/4/6 543/4/6
f 543/4/6 540/4/6 544/4/6
f 545/4/6 546/4/6 549/4/6
f 549/4/6 546/4/6 550/4/6
f 547/4/6 548/4/6 551/4/6
f 551/4/6 548/4/6 552/4/6
f 553/4/6 554/4/6 557/4/6
f 557/4/6 554/4/6 558/4/6
f 555/4/6 556/4/6 559/4/6
f 559/4/6 556/4/6 560/4/6
f 561/4/6 562/4/6 563/4/6
f 563/4/6 562/4/6 564/4/6
f 565/4/6 566/4/6 569/4/6
f 569/4/6 566/4/6 570/4/6
f 567/4/6 568/4/6 571/4/6
f 571/4/6 568/4/6 572/4/6
f 573/4/6 574/4/6 575/4/6
f 575/4/6 574/4/6 576/4/6
f 575/3/6 576/3/6 577/3/6
f 577/3/6 576/3/6 578/3/6
f 577/4/6 578/4/6 579/4/6
f 579/4/6 578/4/6 580/4/6
f 579/3/6 580/3/6 581/3/6
f 581/3/6 580/3/6 582/3/6
f 581/4/6 582/4/6 583/4/6
f 583/4/6 582/4/6 584/4/6
f 585/4/6 586/4/6 587/4/6
f 587/4/6 586/4/6 588/4/6
f 589/2/6 590/2/6 592/2/6
f 592/2/6 590/2/6 593/2/6
f 591/2/6 592/2/6 595/2/6
f 593/2/6 594/2/6 595/2/6
f 592/2/6 593/2/6 595/2/6
f 595/2/6 594/2/6 596/2/6
f 596/2/6 594/2/6 597/2/6
f 597/2/6 594/2/6 598/2/6
f 596/2/6 597/2/6 599/2/6
f 599/2/6 597/2/6 600/2/6
f 587/3/6 588/3/6 601/3/6
f 601/3/6 588/3/6 602/3/6
f 601/4/6 602/4/6 603/4/6
f 603/4/6 602/4/6 604/4/6
f 605/4/6 606/4/6 607/4/6
f 607/4/6 606/4/6 608/4/6
f 605/4/6 607/4/6 609/4/6
f 609/4/6 607/4/6 610/4/6
f 608/4/6 606/4/6 611/4/6
f 611/4/6 606/4/6 612/4/6
f 605/4/6 609/4/6 613/4/6
f 612/4/6 606/4/6 616/4/6
f 613/4/6 614/4/6 617/4/6
f 615/4/6 616/4/6 618/4/6
f 613/4/6 617/4/6 619/4/6
f 617/4/6 618/4/6 619/4/6
f 605/4/6 613/4/6 619/4/6
f 618/4/6 616/4/6 620/4/6
f 619/4/6 618/4/6 620/4/6
f 616/4/6 606/4/6 620/4/6
